<?xml version="1.0" encoding="UTF-8" standalone="no"?>
<svg width="40px" height="40px" viewBox="0 0 40 40" version="1.1" xmlns="http://www.w3.org/2000/svg" xmlns:xlink="http://www.w3.org/1999/xlink" xmlns:sketch="http://www.bohemiancoding.com/sketch/ns">
    <title>Slice 2</title>
    <description>Created with Sketch (http://www.bohemiancoding.com/sketch)</description>
    <defs></defs>
    <g id="Page-1" stroke="none" stroke-width="1" fill="none" fill-rule="evenodd" sketch:type="MSPage">
        <circle id="Oval-1-copy" stroke="#FFFFFF" stroke-width="5" opacity="0.703053977" fill="#F8E81C" sketch:type="MSShapeGroup" cx="20" cy="20" r="15"></circle>
        <path d="M19.009,28.489 L19.769,28.489 C19.788,27.881 19.845,27.178 19.902,26.361 C22.144,26.361 23.968,25.031 23.968,22.827 C23.968,20.604 22.144,19.635 20.472,18.818 L20.852,14.315 C22.239,14.505 22.695,15.512 22.695,16.823 C23.531,16.728 24.044,16.215 24.044,15.683 C24.044,14.486 22.486,13.593 20.89,13.536 L21.061,11.332 L20.301,11.332 L20.187,13.517 C17.736,13.612 16.482,15.113 16.482,16.918 C16.482,18.989 18.135,20.034 19.693,20.87 L19.275,25.677 C17.603,25.677 16.957,24.366 16.957,22.751 C16.026,22.789 15.627,23.283 15.627,23.91 C15.627,25.05 17.033,26.342 19.199,26.342 L19.009,28.489 Z M22.467,23.511 C22.467,24.841 21.308,25.658 20.016,25.658 C20.111,24.252 20.206,22.789 20.339,21.136 C21.631,21.839 22.467,22.504 22.467,23.511 Z M17.907,16.234 C17.907,15.113 18.743,14.315 20.149,14.258 L19.883,18.514 C18.8,17.944 17.907,17.298 17.907,16.234 Z" id="$" fill="#000000" sketch:type="MSShapeGroup"></path>
    </g>
</svg>